<?xml version="1.0" encoding="UTF-8"?>
<svg xmlns="http://www.w3.org/2000/svg" version="1.1" viewBox="0 0 792 612">
  <defs>
    <style>
      .cls-1 {
        fill: #ada8ff;
      }

      .cls-2 {
        fill: #fff;
      }
    </style>
  </defs>
  <!-- Generator: Adobe Illustrator 28.6.0, SVG Export Plug-In . SVG Version: 1.2.0 Build 709)  -->
  <g>
    <g id="Layer_1">
      <g>
        <path class="cls-2" d="M395.25,374.18c-29.68-26.82-44.1-44.3-61.85-80.49-.73-1.5-.57-3.28.42-4.62,16.68-22.49,27.82-34.36,46.54-50.21,1.76-1.49,4.47-.33,4.6,1.98.58,10.19,1.12,19.5,1.64,28.12.18,3.01-.66,6.01-2.49,8.39-3.55,4.61-8.23,8.28-13.65,10.64l-12.22,5.31c-3.57,1.55-3.57,6.6,0,8.15l12.22,5.31c8.05,3.5,14.47,9.92,17.96,17.97h0c1.67,3.84,2.71,7.92,3.08,12.09,1.11,12.44,2.31,24.35,3.74,37.35Z"/>
        <path class="cls-2" d="M395.99,374.18c29.68-26.82,44.1-44.3,61.85-80.49.73-1.5.57-3.28-.42-4.62-16.68-22.49-27.82-34.36-46.54-50.21-1.76-1.49-4.47-.33-4.6,1.98-.58,10.19-1.12,19.5-1.64,28.12-.18,3.01.66,6.01,2.49,8.39,3.55,4.61,8.23,8.28,13.65,10.64l12.22,5.31c3.57,1.55,3.57,6.6,0,8.15l-12.22,5.31c-8.05,3.5-14.47,9.92-17.96,17.97h0c-1.67,3.84-2.71,7.92-3.08,12.09-1.11,12.44-2.31,24.35-3.74,37.35Z"/>
        <path class="cls-1" d="M395.95,327.77l-3.54-9.58c-2.83-7.66-8.87-13.69-16.53-16.53l-6.03-2.23c-1.22-.45-1.22-2.17,0-2.62l10.56-3.91c3.49-1.29,6.45-3.65,8.48-6.69,1.18-1.77,1.87-3.82,2.12-5.93l4.95-42.08,4.95,42.08c.25,2.11.94,4.16,2.12,5.93,2.03,3.04,4.98,5.4,8.48,6.69l10.56,3.91c1.22.45,1.22,2.17,0,2.62l-6.03,2.23c-7.66,2.83-13.69,8.87-16.53,16.53l-3.54,9.58Z"/>
      </g>
    </g>
  </g>
</svg>