<svg width="24" height="26" viewBox="0 0 31 33" fill="none" xmlns="http://www.w3.org/2000/svg">
<path d="M14.919 32.1347C7.81148 25.7961 4.35898 21.6658 0.108978 13.1141C-0.0660223 12.7613 -0.0285238 12.3394 0.208976 12.0236C4.20148 6.70895 6.86898 3.90361 11.354 0.158215C11.7765 -0.194612 12.424 0.0817261 12.4565 0.627004C12.594 3.03511 12.724 5.23596 12.849 7.2715C12.894 7.98208 12.6915 8.69021 12.2515 9.25522C11.4015 10.3433 10.2815 11.2118 8.98398 11.7694L6.05648 13.0253C5.20148 13.3929 5.20148 14.5846 6.05648 14.9498L8.98398 16.2057C10.9115 17.0347 12.449 18.5496 13.2865 20.4519C13.6865 21.3599 13.934 22.3246 14.024 23.3091C14.289 26.2477 14.579 29.0629 14.919 32.1347Z" fill="#ADA8FF"/>
<path d="M15.0964 32.1344C22.2039 25.7959 25.6564 21.6656 29.9064 13.1139C30.0814 12.761 30.0439 12.3391 29.8064 12.0233C25.8139 6.7087 23.1464 3.90336 18.6614 0.15797C18.2389 -0.194856 17.5914 0.081482 17.5589 0.62676C17.4214 3.03486 17.2914 5.23571 17.1664 7.27125C17.1214 7.98184 17.3239 8.68996 17.7639 9.25498C18.6139 10.3431 19.7339 11.2116 21.0314 11.7692L23.9589 13.025C24.8139 13.3927 24.8139 14.5844 23.9589 14.9496L21.0314 16.2054C19.1039 17.0344 17.5664 18.5494 16.7289 20.4517C16.3289 21.3597 16.0814 22.3244 15.9914 23.3088C15.7264 26.2474 15.4364 29.0626 15.0964 32.1344Z" fill="#ADA8FF"/>
<path d="M15.0864 21.1671L14.2364 18.9021C13.5589 17.0936 12.1114 15.665 10.2789 14.9964L8.83388 14.4684C8.54138 14.3623 8.54138 13.9552 8.83388 13.8491L11.3614 12.9263C12.1989 12.6203 12.9064 12.0627 13.3914 11.3447C13.6739 10.9278 13.8389 10.4417 13.8989 9.9433L15.0839 0L16.2689 9.9433C16.3289 10.4417 16.4939 10.9253 16.7764 11.3447C17.2614 12.0627 17.9689 12.6203 18.8064 12.9263L21.3339 13.8491C21.6264 13.9552 21.6264 14.3623 21.3339 14.4684L19.8889 14.9964C18.0564 15.665 16.6089 17.0936 15.9314 18.9021L15.0814 21.1671H15.0864Z" fill="#7818F4"/>
</svg>