<svg width="30" height="33" viewBox="0 0 30 33" fill="none" xmlns="http://www.w3.org/2000/svg">
<path d="M14.9161 32.9996C7.81083 26.4947 4.36586 22.2472 0.107485 13.4608C-0.0599795 13.0967 -0.036056 12.6598 0.203178 12.3443C4.19839 6.8831 6.8539 3.99475 11.3276 0.159796C11.7582 -0.204282 12.4041 0.0869805 12.4281 0.645233C12.5716 3.12096 12.6912 5.37824 12.8108 7.46562C12.8587 8.19378 12.6434 8.92193 12.2127 9.50446C11.3754 10.621 10.251 11.519 8.95916 12.0773L6.0405 13.3637C5.17925 13.7278 5.17925 14.9656 6.0405 15.3297L8.95916 16.6161C10.873 17.4656 12.4281 19.019 13.2654 20.985C13.6721 21.9074 13.9113 22.9025 14.007 23.9219C14.2702 26.9316 14.5572 29.8443 14.8922 32.9996H14.9161Z" fill="white"/>
<path d="M15.0836 32.9998C22.1889 26.495 25.6339 22.2474 29.8922 13.461C30.0597 13.0969 30.0358 12.66 29.7965 12.3445C25.8013 6.88334 23.1458 3.99499 18.6721 0.16004C18.2415 -0.204037 17.5956 0.0872247 17.5717 0.645477C17.4281 3.12121 17.3085 5.37849 17.1889 7.46587C17.141 8.19402 17.3563 8.92218 17.787 9.5047C18.6243 10.6212 19.7487 11.5193 21.0406 12.0775L23.9592 13.3639C24.8205 13.728 24.8205 14.9659 23.9592 15.3299L21.0406 16.6164C19.1267 17.4659 17.5717 19.0193 16.7343 20.9853C16.3276 21.9076 16.0884 22.9028 15.9927 23.9222C15.7296 26.9319 15.4425 29.8445 15.1075 32.9998H15.0836Z" fill="white"/>
<path d="M15.0837 21.7378L14.2464 19.4077C13.5765 17.5388 12.1172 16.0825 10.299 15.4029L8.86363 14.8689C8.57655 14.7475 8.57655 14.3349 8.86363 14.2378L11.3995 13.2912C12.2368 12.9757 12.9545 12.4174 13.433 11.665C13.7201 11.2281 13.8875 10.7427 13.9354 10.233L15.1316 0.0145264L16.3277 10.233C16.3756 10.7427 16.5431 11.2524 16.8301 11.665C17.3086 12.3932 18.0263 12.9757 18.8636 13.2912L21.3995 14.2378C21.6866 14.3592 21.6866 14.7718 21.3995 14.8689L19.9641 15.4029C18.122 16.0825 16.6866 17.5631 16.0167 19.4077L15.1794 21.7378H15.0837Z" fill="#ADA8FF"/>
</svg>
